<svg xmlns="http://www.w3.org/2000/svg" viewBox="0 0 612 792"><defs><style>.cls-1{fill:#030202;}.cls-2{fill:#f5db58;}.cls-3{fill:#c0bfbd;}.cls-4{fill:#47463f;}</style></defs><title>btb</title><g id="Layer_6" data-name="Layer 6"><rect class="cls-1" x="239" y="279.67" width="19.33" height="46.67"/><rect class="cls-1" x="276.33" y="279.67" width="17.33" height="46.67"/><circle class="cls-2" cx="207.11" cy="159.47" r="25.89"/><circle class="cls-2" cx="326.56" cy="159.47" r="25.89"/><polygon class="cls-2" points="268 185.36 240 231.36 294.67 231.36 268 185.36"/><path class="cls-1" d="M361.09,97l19.66,6s13.68,75.21,20.51,92.31,27.35,85.47,25.64,123.93-17.09,63-48.72,76.79-53.85,19.79-53.85,19.79l11.11-29.91s2.68-9.87,2.18-15.37-15.53,7-23,11.5c-8.25,5-14.5,4.5-14.5,4.5s-.15-19.74,1.5-21.25c3-2.75-15,6.75-18.5,7.75l-3.5,1V360s17-.5,31-6.5,22-35.5,22-35.5l-22,4.5V283s25,3,27,5,0-31.62,0-31.62,28-26.38,36.5-49.38,9.5-52.5,3-73A209.5,209.5,0,0,0,361.09,97Z"/><path class="cls-1" d="M171.54,97l-19.66,6s-13.68,75.21-20.51,92.31S104,280.74,105.73,319.21s17.09,63,48.72,76.79,53.85,19.79,53.85,19.79l-11.11-29.91S194.5,376,195,370.5s15.53,7,23,11.5c8.25,5,14.5,4.5,14.5,4.5s.15-19.74-1.5-21.25c-3-2.75,15,6.75,18.5,7.75l3.5,1V360s-17-.5-31-6.5S200,318,200,318l22,4.5V283s-25,3-27,5,0-31.62,0-31.62S167,230,158.5,207s-9.5-52.5-3-73A209.5,209.5,0,0,1,171.54,97Z"/><path class="cls-3" d="M377.59,299.65,355.13,364s-1.95,6,.75,7.19,4.49-.6,9-3.44,13.63-9.58,15.27-9.58,7.79,4.49,7.79,4.49l12.88,8.24s2.7,1.35,4.49-.45.3-4.94-1.2-9.58S383.28,299,383.28,299l-.15-40.58L389,242.6s1.72-3.52.07-4.34-6.06,4.87-8.31,4.87c-2.7,0-6.89-5.74-8.91-4.87-1.42.61-.37,2.63-.07,3.83s5.77,16.47,5.77,16.47Z"/><path class="cls-3" d="M156.1,297.77l-22.46,64.39s-1.95,6,.75,7.19,4.49-.6,9-3.44,13.63-9.58,15.27-9.58,7.79,4.49,7.79,4.49L179.31,369s2.7,1.35,4.49-.45.3-4.94-1.2-9.58-20.81-61.84-20.81-61.84l-.15-40.58,5.84-15.87s1.72-3.52.07-4.34-6.06,4.87-8.31,4.87c-2.7,0-6.89-5.74-8.91-4.87-1.42.61-.37,2.63-.07,3.83S156,256.66,156,256.66Z"/><polygon class="cls-4" points="162.1 313.59 150.32 338.45 158.06 335.55 147.98 358.81 169.5 327.19 158.43 330.37 162.1 313.59"/><polygon class="cls-4" points="382.64 313.59 370.86 338.45 378.6 335.55 368.52 358.81 390.04 327.19 378.97 330.37 382.64 313.59"/></g></svg>