<svg xmlns="http://www.w3.org/2000/svg" viewBox="0 0 185.99 181.49"><defs><style>.cls-1{fill:#030202;}.cls-2{fill:#c0bfbd;}.cls-3{fill:#47463f;}</style></defs><title>btbBlack</title><g id="Layer_6" data-name="Layer 6"><rect class="cls-1" x="86.89" y="109.19" width="8.61" height="20.77"/><rect class="cls-1" x="103.5" y="109.19" width="7.71" height="20.77"/><circle class="cls-1" cx="72.69" cy="55.69" r="11.52"/><circle class="cls-1" cx="125.86" cy="55.69" r="11.52"/><polygon class="cls-1" points="99.8 67.21 87.33 87.69 111.66 87.69 99.8 67.21"/><path class="cls-1" d="M141.23,27.88,150,30.54s6.09,33.48,9.13,41.09,12.17,38,11.41,55.16-7.61,28-21.68,34.18a190.23,190.23,0,0,1-24,8.81l4.95-13.31s1.19-4.39,1-6.84-6.91,3.1-10.24,5.12a11.84,11.84,0,0,1-6.45,2s-.07-8.79.67-9.46c1.34-1.22-6.68,3-8.23,3.45l-1.56.45v-6.23a43.74,43.74,0,0,0,13.8-2.89c6.23-2.67,9.79-15.8,9.79-15.8l-9.79,2V110.67s11.13,1.34,12,2.23,0-14.07,0-14.07,12.46-11.74,16.25-22,4.23-23.37,1.34-32.49A93.25,93.25,0,0,0,141.23,27.88Z"/><path class="cls-1" d="M56.86,27.88l-8.75,2.66S42,64,39,71.62s-12.17,38-11.41,55.16,7.61,28,21.68,34.18a190.23,190.23,0,0,0,24,8.81l-4.95-13.31s-1.19-4.39-1-6.84,6.91,3.1,10.24,5.12a11.84,11.84,0,0,0,6.45,2s.07-8.79-.67-9.46c-1.34-1.22,6.68,3,8.23,3.45l1.56.45v-6.23A43.74,43.74,0,0,1,79.32,142c-6.23-2.67-9.79-15.8-9.79-15.8l9.79,2V110.67s-11.13,1.34-12,2.23,0-14.07,0-14.07-12.46-11.74-16.25-22-4.23-23.37-1.34-32.49A93.25,93.25,0,0,1,56.86,27.88Z"/><path class="cls-2" d="M148.57,118.08l-10,28.66s-.87,2.67.33,3.2,2-.27,4-1.53,6.06-4.27,6.8-4.27,3.47,2,3.47,2l5.73,3.67a1.84,1.84,0,0,0,2-.2c.8-.8.13-2.2-.53-4.27s-9.26-27.53-9.26-27.53L151,99.75l2.6-7.06s.77-1.57,0-1.93-2.7,2.17-3.7,2.17c-1.2,0-3.07-2.55-4-2.17-.63.27-.17,1.17,0,1.7s2.57,7.33,2.57,7.33Z"/><path class="cls-2" d="M50,117.24,40,145.9s-.87,2.67.33,3.2,2-.27,4-1.53,6.06-4.27,6.8-4.27,3.47,2,3.47,2L60.32,149a1.84,1.84,0,0,0,2-.2c.8-.8.13-2.2-.53-4.27S52.52,117,52.52,117l-.07-18.06,2.6-7.06s.77-1.57,0-1.93-2.7,2.17-3.7,2.17c-1.2,0-3.07-2.55-4-2.17-.63.27-.17,1.17,0,1.7S50,98.95,50,98.95Z"/><polygon class="cls-3" points="52.66 124.29 47.42 135.35 50.86 134.06 46.38 144.41 55.95 130.34 51.03 131.75 52.66 124.29"/><polygon class="cls-3" points="150.82 124.29 145.58 135.35 149.02 134.06 144.54 144.41 154.11 130.34 149.19 131.75 150.82 124.29"/></g></svg>